<svg width="223" height="223" viewBox="0 0 223 223" fill="none" xmlns="http://www.w3.org/2000/svg">
<circle cx="111.5" cy="111.5" r="111.5" fill="black"/>
<path d="M129.223 90.6151C128.868 86.7088 127.288 83.6726 124.482 81.5064C121.712 79.3047 117.753 78.2038 112.604 78.2038C109.195 78.2038 106.354 78.6477 104.081 79.5355C101.808 80.4233 100.104 81.6484 98.9673 83.2109C97.831 84.7379 97.245 86.4957 97.2095 88.4844C97.1385 90.1179 97.4581 91.5561 98.1683 92.799C98.9141 94.0419 99.9794 95.1428 101.364 96.1016C102.785 97.0249 104.489 97.8416 106.478 98.5518C108.467 99.2621 110.704 99.8835 113.19 100.416L122.565 102.547C127.962 103.719 132.721 105.281 136.84 107.234C140.995 109.188 144.475 111.513 147.281 114.212C150.121 116.911 152.27 120.018 153.726 123.534C155.182 127.05 155.928 130.991 155.963 135.359C155.928 142.249 154.188 148.161 150.743 153.097C147.298 158.033 142.344 161.815 135.881 164.443C129.454 167.071 121.695 168.385 112.604 168.385C103.477 168.385 95.5227 167.018 88.7401 164.283C81.9574 161.549 76.6839 157.394 72.9197 151.819C69.1555 146.244 67.2202 139.195 67.1136 130.672H92.3622C92.5753 134.188 93.5163 137.117 95.1854 139.461C96.8544 141.805 99.1449 143.58 102.057 144.788C105.004 145.995 108.413 146.599 112.284 146.599C115.835 146.599 118.854 146.119 121.339 145.161C123.861 144.202 125.796 142.87 127.146 141.165C128.495 139.461 129.188 137.508 129.223 135.306C129.188 133.246 128.548 131.489 127.305 130.033C126.063 128.541 124.145 127.263 121.553 126.197C118.996 125.097 115.729 124.085 111.751 123.161L100.352 120.498C90.9062 118.332 83.4666 114.834 78.0334 110.004C72.6001 105.139 69.9013 98.5696 69.9368 90.2955C69.9013 83.5483 71.7124 77.6357 75.37 72.5575C79.0277 67.4794 84.0881 63.5199 90.5511 60.679C97.0142 57.8381 104.383 56.4176 112.657 56.4176C121.109 56.4176 128.442 57.8558 134.656 60.7322C140.906 63.5732 145.754 67.5682 149.198 72.7173C152.643 77.8665 154.401 83.8324 154.472 90.6151H129.223Z" fill="#B89769"/>
</svg>
