<svg width="223" height="223" viewBox="0 0 223 223" fill="none" xmlns="http://www.w3.org/2000/svg">
<rect width="223" height="223" fill="white"/>
<path d="M50.5043 148V75.2727H101.214V89.5483H68.0824V104.463H98.6222V118.774H68.0824V133.724H101.214V148H50.5043ZM154.95 99.0298C154.548 97.5384 153.956 96.2244 153.175 95.0881C152.393 93.928 151.435 92.9455 150.298 92.1406C149.162 91.3357 147.86 90.732 146.392 90.3295C144.924 89.9034 143.314 89.6903 141.562 89.6903C138.035 89.6903 134.981 90.5426 132.401 92.2472C129.844 93.9517 127.867 96.4375 126.47 99.7045C125.073 102.948 124.375 106.89 124.375 111.53C124.375 116.194 125.05 120.171 126.399 123.462C127.749 126.752 129.702 129.262 132.259 130.99C134.815 132.718 137.917 133.582 141.562 133.582C144.782 133.582 147.505 133.062 149.73 132.02C151.979 130.955 153.684 129.451 154.844 127.51C156.004 125.569 156.584 123.284 156.584 120.656L159.851 121.047H142.166V108.227H173.523V117.851C173.523 124.361 172.138 129.937 169.368 134.577C166.622 139.217 162.834 142.78 158.004 145.266C153.198 147.751 147.67 148.994 141.42 148.994C134.484 148.994 128.388 147.491 123.132 144.484C117.876 141.478 113.781 137.193 110.845 131.629C107.91 126.042 106.442 119.413 106.442 111.743C106.442 105.777 107.33 100.486 109.105 95.8693C110.881 91.2292 113.355 87.2992 116.527 84.0795C119.723 80.8598 123.416 78.4214 127.607 76.7642C131.821 75.107 136.354 74.2784 141.207 74.2784C145.421 74.2784 149.339 74.8821 152.962 76.0895C156.607 77.2969 159.827 79.0014 162.621 81.2031C165.438 83.4048 167.723 86.0208 169.474 89.0511C171.226 92.0814 172.315 95.4077 172.741 99.0298H154.95Z" fill="#002360"/>
</svg>
