<svg width="223" height="223" viewBox="0 0 223 223" fill="none" xmlns="http://www.w3.org/2000/svg">
<circle cx="111.5" cy="111.5" r="111.5" fill="black"/>
<path d="M35.4008 138.248V99.7608H46.0727V138.248H35.4008ZM40.7618 94.7996C39.1752 94.7996 37.8141 94.2734 36.6784 93.221C35.5595 92.1518 35 90.874 35 89.3872C35 87.9172 35.5595 86.656 36.6784 85.6036C37.8141 84.5345 39.1752 84 40.7618 84C42.3483 84 43.7011 84.5345 44.8201 85.6036C45.9558 86.656 46.5236 87.9172 46.5236 89.3872C46.5236 90.874 45.9558 92.1518 44.8201 93.221C43.7011 94.2734 42.3483 94.7996 40.7618 94.7996ZM75.0882 99.7608V107.779H51.9158V99.7608H75.0882ZM57.1766 90.5399H67.8484V126.421C67.8484 127.407 67.9987 128.175 68.2993 128.727C68.6 129.261 69.0174 129.637 69.5519 129.854C70.103 130.071 70.7377 130.18 71.4558 130.18C71.9568 130.18 72.4578 130.138 72.9588 130.055C73.4599 129.954 73.844 129.879 74.1112 129.829L75.7896 137.772C75.2552 137.939 74.5037 138.131 73.535 138.349C72.5664 138.582 71.389 138.724 70.0028 138.774C67.4309 138.875 65.1762 138.532 63.239 137.747C61.3184 136.962 59.8237 135.743 58.7548 134.089C57.6859 132.435 57.1599 130.347 57.1766 127.825V90.5399ZM99.1624 139C95.2043 139 91.7974 138.198 88.9415 136.595C86.1024 134.974 83.9145 132.686 82.3781 129.729C80.8416 126.756 80.0734 123.239 80.0734 119.18C80.0734 115.221 80.8416 111.746 82.3781 108.756C83.9145 105.766 86.0774 103.436 88.8664 101.765C91.6721 100.095 94.9622 99.2597 98.7365 99.2597C101.275 99.2597 103.638 99.6689 105.826 100.488C108.03 101.289 109.951 102.5 111.588 104.121C113.241 105.741 114.527 107.779 115.446 110.235C116.364 112.673 116.824 115.53 116.824 118.804V121.736H84.3321V115.121H106.778C106.778 113.584 106.444 112.222 105.776 111.036C105.108 109.85 104.181 108.923 102.995 108.255C101.826 107.57 100.465 107.228 98.9119 107.228C97.2919 107.228 95.8556 107.604 94.6031 108.355C93.3673 109.09 92.3986 110.084 91.6971 111.337C90.9957 112.573 90.6366 113.951 90.62 115.472V121.761C90.62 123.665 90.9707 125.311 91.6721 126.697C92.3902 128.084 93.4006 129.153 94.7033 129.904C96.006 130.656 97.5508 131.032 99.3378 131.032C100.524 131.032 101.609 130.865 102.594 130.531C103.58 130.197 104.423 129.696 105.125 129.027C105.826 128.359 106.361 127.541 106.728 126.572L116.598 127.223C116.097 129.595 115.07 131.667 113.517 133.437C111.98 135.191 109.993 136.561 107.555 137.547C105.133 138.516 102.336 139 99.1624 139ZM123.788 138.248V99.7608H134.134V106.476H134.535C135.236 104.087 136.414 102.283 138.067 101.064C139.72 99.8276 141.624 99.2096 143.779 99.2096C144.313 99.2096 144.889 99.243 145.507 99.3098C146.125 99.3766 146.668 99.4685 147.135 99.5855V109.057C146.634 108.907 145.942 108.773 145.056 108.656C144.171 108.539 143.361 108.481 142.626 108.481C141.056 108.481 139.653 108.823 138.418 109.508C137.198 110.176 136.23 111.112 135.512 112.314C134.81 113.517 134.46 114.904 134.46 116.474V138.248H123.788ZM177.329 121.861V99.7608H188V138.248H177.754V131.257H177.353C176.485 133.513 175.04 135.325 173.02 136.695C171.016 138.065 168.569 138.749 165.68 138.749C163.108 138.749 160.845 138.165 158.891 136.995C156.937 135.826 155.409 134.164 154.307 132.009C153.221 129.854 152.67 127.273 152.653 124.267V99.7608H163.325V122.362C163.341 124.634 163.951 126.43 165.154 127.749C166.356 129.069 167.968 129.729 169.989 129.729C171.275 129.729 172.477 129.437 173.596 128.852C174.715 128.251 175.617 127.365 176.302 126.196C177.003 125.027 177.345 123.582 177.329 121.861Z" fill="#B89769"/>
</svg>
